<svg id="objects" xmlns="http://www.w3.org/2000/svg" viewBox="0 0 2200 1466"><defs><style>.cls-1{fill:#2d43e2;}.cls-2{fill:#e2e2e2;}</style></defs><path class="cls-1" d="M1539,761c0,143.23-66.62,270.9-170.57,353.71a452,452,0,0,1-562.86,0C701.62,1031.9,635,904.23,635,761c0-249.63,202.37-452,452-452S1539,511.37,1539,761Z"/><path class="cls-2" d="M1262.75,676.12C1262.75,790,1184.06,828,1087,828S911.25,790,911.25,676.12,989.94,470,1087,470,1262.75,562.28,1262.75,676.12Z"/><path class="cls-2" d="M1368.43,1114.71a452,452,0,0,1-562.86,0C805.57,967,954.29,906,1087,906S1368.43,983,1368.43,1114.71Z"/></svg>